<?xml version="1.0" encoding="utf-8"?>
<!-- Generator: Adobe Illustrator 23.0.2, SVG Export Plug-In . SVG Version: 6.00 Build 0)  -->
<svg version="1.1" id="Layer_1" xmlns="http://www.w3.org/2000/svg" xmlns:xlink="http://www.w3.org/1999/xlink" x="0px" y="0px"
	 viewBox="0 0 143.1356 303.3536" enable-background="new 0 0 143.1356 303.3536" xml:space="preserve" width="40" height="40">
<g>
	<path d="M57.5996,45.4462c-9.1821,3.1611-19.1883-1.7198-22.3494-10.9019C32.089,25.3622,36.97,15.356,46.152,12.1949
		c9.1821-3.1611,19.1883,1.7198,22.3494,10.9019c0.3776,1.0967,0.6331,2.2052,0.7876,3.3124
		c0.3727-2.0071,0.9211-3.984,1.6431-5.9085c-2.9715-7.1752-9.8093-12.4227-18.0826-12.9254
		c-11.5546-0.702-21.4908,8.0959-22.1928,19.6507c-0.6561,10.7988,6.986,20.1818,17.4209,21.9367l1.5854,10.8606l2.8889-10.5887
		c7.0383-0.3187,13.2411-4.1557,16.8049-9.8645c-0.3742-1.8998-0.5862-3.8193-0.6421-5.7401
		C67.1481,39.0792,63.1744,43.5269,57.5996,45.4462z" fill="#38fff5"/>
	<path d="M115.279,66.0042c-0.4795,0.165-0.9639,0.3033-1.4473,0.4467c5.754,1.2936,10.7291,5.4322,12.7899,11.418
		c3.1611,9.1821-1.7198,19.1882-10.9019,22.3494c-9.1821,3.1612-19.1883-1.7197-22.3494-10.9019
		c-2.9067-8.4432,0.9974-17.5684,8.7818-21.4425c-1.78-0.0861-3.5457-0.3232-5.2878-0.6758
		c-4.0104,3.3845-6.7462,8.2328-7.3406,13.7356l-10.7482,2.2231l10.7407,2.2594c1.1013,10.5239,9.9896,18.7359,20.8085,18.754
		c11.576,0.0194,20.976-9.3492,20.9955-20.9254c0.0139-8.3658-4.8873-15.5739-11.9694-18.9474
		c-1.3154,0.6481-2.6693,1.2241-4.0689,1.7059C115.2809,66.0035,115.28,66.0038,115.279,66.0042z" fill="#38fff5"/>
	<path d="M41.4324,291.705l5.2645-90.8886h5.796l5.2645,90.8886c0.395,6.8187,6.2427,12.0224,13.0594,11.6276
		c6.8148-0.3947,12.0226-6.2388,11.6277-13.0575l-5.8032-100.1887v-43.214l13.2762,16.9715
		c1.5508,1.9834,3.8955,3.0713,6.3037,3.0713c1.0205,0,2.0527-0.1958,3.04-0.6016c4.9326-2.0288,29.875-12.8169,36.4609-26.0127
		c1.3337-2.6727,1.027-5.7316-0.53-8.0443l-23.7687,24.0671l-29.0952-10.1356l3.9049-3.652l-1.7629-3.1694l26.4141-24.1235
		c1.3984,0.0195,7.2471,0.6074,17.084,8.2002l1.3691,1.0562l0.4453-1.6699c0.2324-0.8721,2.4834-2.5029,4.6289-3.6309
		c0.7012,0.4033,1.998,1.1831,3.1299,2.0522l-6.5819,6.3323l-17.6622-7.2087l-26.6182,24.8939l24.1282,8.4046l32.3281-32.7334
		l-2.1074-1.2272l-0.7841-0.4566l-0.6904,0.6645c-1.894-1.5931-4.4542-2.9752-4.5717-3.0385l-0.5195-0.2783l-0.5293,0.2588
		c-0.7676,0.3755-4.0293,2.042-5.5986,3.9727c-11.5469-8.5957-17.792-7.9009-18.0625-7.8667l-0.3594,0.0469l-23.0064,21.0116
		L75.938,120.006c-1.729-2.2108-4.3886-3.2605-6.991-3.0375c-0.0116-0.0001-0.0227-0.0017-0.0343-0.0017H30.2779
		c-0.6697,0-1.3159,0.0941-1.9355,0.2542c-3.0297,0.4155-7.4982,1.8217-12.046,6.0942
		C3.4039,135.4288-1.8803,162.9928,0.5914,205.2408c0.249,4.252,3.7744,7.5342,7.9785,7.5332c0.1572,0,0.3164-0.0039,0.4746-0.0137
		c4.4111-0.2578,7.7773-4.043,7.5195-8.4531c-1.9926-34.0593,1.6868-52.704,5.9855-62.2845v48.0457L16.7452,290.275
		c-0.395,6.8187,4.8129,12.6628,11.6277,13.0575C35.1896,303.7274,41.0374,298.5236,41.4324,291.705z" fill="#38fff5"/>
	<path d="M49.5954,111.2686c12.4277,0,22.5-10.0733,22.5-22.5c0-12.4268-10.0723-22.5-22.5-22.5c-12.4258,0-22.5,10.0732-22.5,22.5
		C27.0954,101.1953,37.1696,111.2686,49.5954,111.2686z M51.9012,94.3351c6.0815-1.0248,11.2902-2.0225,11.7185,0.519
		c0.4283,2.5415-4.1545,5.4326-10.2359,6.4575c-6.0815,1.0248-11.3586-0.2047-11.7869-2.7461
		C41.1686,96.0239,45.8198,95.3599,51.9012,94.3351z" fill="#38fff5"/>
	<path d="M128.0609,10.6896C115.8456-2.6924,95.0945-3.6385,81.7121,8.5771C69.2054,19.9933,67.564,38.8633,77.3738,52.2078
		l-10.056,13.9287l14.7861-8.7469c12.3967,10.9832,31.3376,11.0654,43.8445-0.351
		C139.3306,44.8231,140.2764,24.072,128.0609,10.6896z M111.9216,59.6184c-14.2083,4.8915-29.6918-2.6612-34.5833-16.8695
		s2.6612-29.6918,16.8694-34.5833c14.2083-4.8915,29.6918,2.6612,34.5833,16.8694
		C133.6827,39.2433,126.1299,54.7268,111.9216,59.6184z" fill="#38fff5"/>
	<path d="M93.0136,24.2705c0.3789-0.2705,0.3525-0.4336-0.082-0.4883h-1.5488v3.75h-6.9316v9.459h1.6309v-1.0596h5.3008v6.1162
		h1.6309v-6.1162h5.4629v0.5713h1.6309v-8.9707h-7.0938V24.2705z M91.3827,34.3818H86.082V29.082h5.3008V34.3818z M98.4765,29.082
		v5.2998h-5.4629V29.082H98.4765z" fill="#38fff5"/>
	<path d="M118.0468,28.5928h3.832v-1.5488h-7.9092v-2.4473c0.4893-0.3262,0.4609-0.542-0.0811-0.6523h-1.7949v3.0996h-7.8281v1.5488
		h3.9141c0.6523,2.7188,1.9297,5.1104,3.833,7.1758c-2.2832,1.957-4.8662,3.3438-7.7471,4.1582l0.7344,1.957
		c2.8809-0.8701,5.6797-2.4727,8.3984-4.8105c2.6094,2.2295,5.3008,3.6963,8.0732,4.4033l0.7334-1.957
		c-3.1533-0.8154-5.6807-2.0654-7.583-3.751C116.4697,33.54,117.6113,31.1484,118.0468,28.5928z M113.3173,34.4639
		c-1.9033-2.0654-3.0166-4.0225-3.3428-5.8711h6.3594C115.9531,30.5498,114.9482,32.5068,113.3173,34.4639z" fill="#38fff5"/>
	<polygon points="42.0273,34.1042 46.9804,34.1042 46.9804,32.5456 43.7167,32.5456 43.7167,29.1667 46.1279,29.1667 
		46.1279,27.6081 43.7167,27.6081 43.7167,24.7214 46.9804,24.7214 46.9804,23.1628 42.0273,23.1628 " fill="#38fff5"/>
	<polygon points="52.6074,29.9704 49.8525,23.1628 48.1464,23.1628 48.1464,34.1042 49.7538,34.1042 49.7538,26.821 52.706,34.1042 
		54.2148,34.1042 54.2148,23.1628 52.6074,23.1628 	" fill="#38fff5"/>
	<path d="M58.6435,30.069h1.3945v0.4424c0,1.5264-0.377,2.166-1.2627,2.166c-0.542,0-0.9678-0.3115-1.1484-0.8203
		c-0.1309-0.4102-0.1807-0.8857-0.1807-1.7881v-3.3467c0-0.8857,0.0498-1.2139,0.2461-1.5742
		c0.1807-0.3613,0.5576-0.5576,1.001-0.5576c0.918,0,1.2959,0.623,1.2959,2.1318h1.6895c0-1.0498-0.1152-1.7217-0.3936-2.2637
		c-0.4922-0.9512-1.3779-1.459-2.5752-1.459c-1.001,0-1.8379,0.3604-2.3135,1.0166c-0.5088,0.6729-0.6396,1.2959-0.6396,3.0342
		v3.0186c0,1.5088,0.1152,2.2148,0.4756,2.9199c0.4268,0.8037,1.2637,1.2793,2.2637,1.2793c0.8857,0,1.4932-0.3115,2.0508-1.0986
		l0.3115,0.9346h0.8691v-5.4297h-3.084V30.069z" fill="#38fff5"/>
	<path d="M103.5331,82.8591c-0.1807-0.1494-0.3994-0.2588-0.6553-0.3291s-0.542-0.1055-0.8574-0.1055h-0.4912v-1.6094h2v-0.6445
		H98.538v2.3154c-0.334,0.0762-0.5986,0.2314-0.7959,0.4648c-0.1982,0.2344-0.2969,0.543-0.2969,0.9258
		c0,0.2256,0.043,0.4375,0.1279,0.6357c0.084,0.1992,0.2109,0.373,0.3789,0.5225c0.168,0.1484,0.3779,0.2666,0.6299,0.3525
		c0.251,0.0869,0.542,0.1299,0.8721,0.1299c0.3223,0,0.6084-0.04,0.8604-0.1182c0.251-0.0791,0.4648-0.1953,0.6396-0.3467
		c0.1934-0.1699,0.3379-0.3779,0.4326-0.625s0.1426-0.5537,0.1426-0.9189v-0.4434h0.5215c0.1875,0,0.3613,0.0215,0.5225,0.0635
		c0.1602,0.043,0.2988,0.1133,0.4141,0.2109s0.2061,0.2266,0.2725,0.3857c0.0654,0.1592,0.0986,0.3574,0.0986,0.5947
		c0,0.2305-0.0381,0.4395-0.1123,0.625s-0.1836,0.3477-0.3262,0.4863c-0.1436,0.1387-0.3184,0.2529-0.5244,0.3428
		c-0.2061,0.0889-0.4414,0.1523-0.7041,0.1904c-0.0879,0.0117-0.1787,0.0186-0.2744,0.0215
		c-0.0947,0.0029-0.1934,0.0049-0.2959,0.0049c-0.2246,0-0.4609,0-0.708,0s-0.4912-0.001-0.7305-0.002
		c-0.2402-0.002-0.4697-0.0029-0.6885-0.0029c-0.2197,0-0.4141,0-0.584,0c-0.3506,0-0.6162,0.0664-0.7979,0.1973
		c-0.1816,0.1318-0.2715,0.3369-0.2715,0.6143c0,0.0908,0.0117,0.1797,0.0371,0.2656c0.0244,0.0859,0.0527,0.166,0.085,0.2393
		h0.6455c-0.0322-0.0645-0.0566-0.1289-0.0732-0.1934c-0.0156-0.0645-0.0234-0.1299-0.0234-0.1973
		c0-0.1113,0.0352-0.1875,0.1074-0.2305c0.0713-0.042,0.1953-0.0635,0.3701-0.0635c0.4102,0,0.8311,0.001,1.2637,0.002
		c0.4326,0.002,0.876,0.0029,1.3291,0.0029c0.4678,0,0.8877-0.0508,1.2607-0.1514c0.373-0.1016,0.6895-0.25,0.9492-0.4473
		c0.2607-0.1982,0.4609-0.4424,0.6016-0.7354c0.1396-0.292,0.21-0.6299,0.21-1.0127c0-0.3281-0.0498-0.6084-0.1494-0.8428
		C103.8554,83.1999,103.7148,83.0085,103.5331,82.8591z M100.8095,83.5036c0,0.4736-0.1084,0.8184-0.3262,1.0332
		s-0.5527,0.3223-1.0029,0.3223c-0.2129,0-0.4004-0.0244-0.5615-0.0742c-0.1602-0.0498-0.2949-0.1191-0.4033-0.2061
		c-0.1084-0.0879-0.1895-0.1934-0.2432-0.3164c-0.0537-0.1221-0.0811-0.2568-0.0811-0.4033c0-0.2832,0.0879-0.4863,0.2627-0.6094
		c0.1758-0.123,0.4316-0.1846,0.7676-0.1846h1.5879V83.5036z M100.8095,82.4245h-1.5566v-1.6094h1.5566V82.4245z" fill="#38fff5"/>
	<path d="M112.3564,81.6833c-0.0801-0.2363-0.1846-0.4531-0.3115-0.6514c-0.127-0.1973-0.2803-0.3662-0.458-0.5088
		c-0.1787-0.1416-0.3838-0.251-0.6162-0.3281c-0.2324-0.0781-0.4951-0.1162-0.7871-0.1162c-0.2666,0-0.5,0.0332-0.7021,0.1006
		s-0.374,0.165-0.5176,0.2939c-0.167,0.1465-0.2881,0.3301-0.3643,0.5527c-0.0762,0.2217-0.1143,0.5059-0.1143,0.8506v2.8994
		h-2.1709v-4.6055h-0.7188v5.25h6.7012c0.0967-0.3389,0.1699-0.6846,0.2197-1.0352s0.0742-0.7178,0.0742-1.1006
		c0-0.29-0.0186-0.5693-0.0566-0.8398S112.4365,81.9206,112.3564,81.6833z M111.8036,84.0983
		c-0.0332,0.2412-0.0781,0.4668-0.1338,0.6777h-2.4648v-2.8428c0-0.2041,0.0176-0.3809,0.0527-0.5303s0.0918-0.2734,0.1709-0.373
		s0.1816-0.1729,0.3096-0.2217c0.127-0.0479,0.2822-0.0723,0.4668-0.0723c0.2979,0,0.5518,0.0645,0.7607,0.1934
		s0.3799,0.3086,0.5117,0.5391c0.1309,0.2314,0.2266,0.5059,0.2871,0.8223c0.0596,0.3174,0.0898,0.666,0.0898,1.0469
		C111.8544,83.6032,111.8378,83.8571,111.8036,84.0983z" fill="#38fff5"/>
	<path d="M112.9111,77.4382c-0.2607,0-0.502,0.0381-0.7266,0.1143c-0.2236,0.0762-0.417,0.1865-0.5811,0.3311
		c-0.1631,0.1445-0.291,0.3223-0.3838,0.5322c-0.0918,0.2109-0.1377,0.4512-0.1377,0.7197c0,0.0967,0.0078,0.1963,0.0244,0.3008
		c0.0156,0.1035,0.0391,0.2061,0.0693,0.3066c0.0313,0.1006,0.0664,0.1973,0.1055,0.2891c0.04,0.0928,0.084,0.1748,0.1338,0.248
		h0.6758c-0.1113-0.166-0.1963-0.3447-0.2549-0.5352c-0.0576-0.1895-0.0869-0.3867-0.0869-0.5918
		c0-0.1582,0.0264-0.3018,0.0781-0.4316c0.0527-0.1309,0.1279-0.2422,0.2246-0.3359c0.0957-0.0938,0.2148-0.166,0.3545-0.2168
		c0.1406-0.0518,0.2988-0.0771,0.4736-0.0771c0.252,0,0.4531,0.0459,0.6055,0.1357c0.1523,0.0908,0.2695,0.2188,0.3506,0.3838
		c0.082,0.165,0.1367,0.3652,0.1631,0.5986c0.0264,0.2344,0.0391,0.4941,0.0391,0.7813v5.4297h0.7197v-5.5918
		c0-0.3516-0.0205-0.6572-0.0615-0.917c-0.041-0.2607-0.1172-0.4912-0.2285-0.6934c-0.0615-0.1133-0.1377-0.2178-0.2305-0.3135
		c-0.0918-0.0947-0.2012-0.1768-0.3281-0.2451c-0.1279-0.0693-0.2734-0.123-0.4365-0.1631
		C113.3085,77.4577,113.121,77.4382,112.9111,77.4382z" fill="#38fff5"/>
	<path d="M116.8056,87.1315c0.1162,0.0957,0.2578,0.1709,0.4229,0.2236s0.3477,0.0791,0.5459,0.0791
		c0.3398,0,0.6279-0.0703,0.8643-0.209c0.2373-0.1387,0.4463-0.334,0.627-0.585c0.0234-0.0352,0.0469-0.0684,0.0703-0.0986
		c0.0234-0.0313,0.0469-0.0625,0.0703-0.0947c0.0615-0.082,0.1182-0.1357,0.1689-0.1621s0.1191-0.04,0.2041-0.04h2.2061v-0.6182
		h-1.7939v-0.7324h3.0967c0.0762-0.251,0.1406-0.5244,0.1924-0.8184c0.0527-0.293,0.0791-0.6045,0.0791-0.9316
		c0-0.4121-0.042-0.8037-0.127-1.1729c-0.085-0.3701-0.2227-0.6953-0.4121-0.9766c-0.1904-0.2803-0.4385-0.5029-0.7432-0.6689
		c-0.3057-0.165-0.6797-0.2471-1.1211-0.2471c-0.5498,0-0.9678,0.1455-1.2539,0.4385c-0.2871,0.292-0.4307,0.7568-0.4307,1.3945
		v2.3379h-2.1973v-4.0791h-0.7188v4.7236h2.916v0.7412c-0.0957,0.0059-0.1885,0.0342-0.2783,0.0859
		c-0.0889,0.0508-0.1758,0.1396-0.2607,0.2646c-0.0264,0.0439-0.0537,0.0879-0.083,0.1318s-0.0586,0.0859-0.0879,0.127
		c-0.0615,0.0879-0.125,0.1699-0.1914,0.2461c-0.0654,0.0762-0.1377,0.1416-0.2168,0.1973s-0.1641,0.0986-0.2568,0.1289
		c-0.0918,0.0313-0.1943,0.0469-0.3086,0.0469c-0.0996,0-0.1924-0.0127-0.2783-0.0381c-0.0869-0.0244-0.1611-0.0615-0.2236-0.1113
		c-0.0635-0.0498-0.1133-0.1123-0.1494-0.1865c-0.0371-0.0742-0.0547-0.1611-0.0547-0.2607c0-0.1523,0.0322-0.2646,0.0986-0.3379
		c0.0654-0.0732,0.1523-0.1094,0.2607-0.1094c0.085,0,0.1484,0.0205,0.1904,0.0615c0.043,0.04,0.0635,0.0898,0.0635,0.1484
		c0,0.0322-0.0049,0.0645-0.0146,0.0967c-0.0107,0.0322-0.0273,0.0596-0.0508,0.083l0.5049,0.2197
		c0.0547-0.0527,0.0986-0.1182,0.1289-0.1953c0.0313-0.0771,0.0459-0.1543,0.0459-0.2305c0-0.1045-0.0225-0.1982-0.0674-0.2803
		c-0.0459-0.082-0.1074-0.1514-0.1846-0.208c-0.0771-0.0576-0.1689-0.1016-0.2744-0.1318
		c-0.1055-0.0313-0.2188-0.0459-0.3418-0.0459c-0.1553,0-0.2949,0.0254-0.4189,0.0762c-0.124,0.0518-0.2295,0.1211-0.3154,0.2109
		c-0.0869,0.0889-0.1533,0.1934-0.2002,0.3135s-0.0703,0.248-0.0703,0.3857c0,0.167,0.0322,0.3193,0.0967,0.4561
		C116.5976,86.9177,116.6884,87.0349,116.8056,87.1315z M120.1913,81.9733c0-0.2139,0.0166-0.3984,0.0508-0.5547
		c0.0332-0.1563,0.0879-0.2852,0.1641-0.3867c0.0762-0.1006,0.1758-0.1748,0.2979-0.2236c0.123-0.0479,0.2754-0.0723,0.457-0.0723
		c0.3271,0,0.5977,0.0664,0.8105,0.1973c0.2139,0.1318,0.3838,0.3096,0.5088,0.5332c0.126,0.2236,0.2129,0.4824,0.2617,0.7764
		c0.0479,0.2939,0.0723,0.6045,0.0723,0.9316c0,0.3867-0.0459,0.7432-0.1357,1.0703h-2.4873V81.9733z" fill="#38fff5"/>
	<path d="M120.2704,78.9557c0.0586,0.0586,0.1279,0.1045,0.2061,0.1377c0.0791,0.0342,0.1641,0.0508,0.2549,0.0508
		s0.1758-0.0166,0.2539-0.0508c0.0791-0.0332,0.1484-0.0791,0.207-0.1377c0.0576-0.0586,0.1045-0.127,0.1377-0.2061
		s0.0508-0.1641,0.0508-0.2549s-0.0176-0.1758-0.0508-0.2559c-0.0332-0.0811-0.0801-0.1504-0.1377-0.209
		c-0.0586-0.0586-0.1279-0.1055-0.207-0.1406c-0.0781-0.0342-0.1631-0.0518-0.2539-0.0518s-0.1758,0.0176-0.2549,0.0518
		c-0.0781,0.0352-0.1475,0.082-0.2061,0.1406c-0.0576,0.0586-0.1045,0.1279-0.1377,0.209c-0.0332,0.0801-0.0508,0.165-0.0508,0.2559
		s0.0176,0.1758,0.0508,0.2549S120.2128,78.8972,120.2704,78.9557z" fill="#38fff5"/>
</g>
</svg>
